<?xml version="1.0" standalone="no"?><!DOCTYPE svg PUBLIC "-//W3C//DTD SVG 1.1//EN" "http://www.w3.org/Graphics/SVG/1.1/DTD/svg11.dtd"><svg t="1731743714415" class="icon" viewBox="0 0 1024 1024" version="1.1" xmlns="http://www.w3.org/2000/svg" p-id="28842" id="mx_n_1731743714416" xmlns:xlink="http://www.w3.org/1999/xlink" width="200" height="200"><path d="M384 128a48 48 0 0 1 2.816 95.92L384 224h-128a32 32 0 0 0-31.92 29.6L224 256v512a32 32 0 0 0 29.6 31.92L256 800h512a32 32 0 0 0 31.92-29.6L800 768v-112a48 48 0 0 1 95.92-2.816L896 656v112a128 128 0 0 1-124 127.936L768 896H256a128 128 0 0 1-127.936-124L128 768V256a128 128 0 0 1 124-127.936L256 128h128z m384 0a128 128 0 0 1 127.936 124L896 256v160a48 48 0 0 1-95.92 2.816L800 416v-124.128l-382.064 382.08a48 48 0 0 1-70.032-65.6l2.16-2.288L732.096 224H608a48 48 0 0 1-2.816-95.92L608 128h160z" fill="#4284ff" p-id="28843"></path></svg>