<?xml version="1.0" standalone="no"?><!DOCTYPE svg PUBLIC "-//W3C//DTD SVG 1.1//EN" "http://www.w3.org/Graphics/SVG/1.1/DTD/svg11.dtd"><svg t="1731739539317" class="icon" viewBox="0 0 1408 1024" version="1.1" xmlns="http://www.w3.org/2000/svg" p-id="1466" xmlns:xlink="http://www.w3.org/1999/xlink" width="275" height="200"><path d="M752.070242 224.116053a15.929758 15.929758 0 0 0 15.95419-15.95419 15.95419 15.95419 0 1 0-15.95419 15.95419zM480.067188 576.207673a63.987784 63.987784 0 1 0-63.963351-63.987784 63.987784 63.987784 0 0 0 63.963351 63.987784z" fill="#4284FF" p-id="1467"></path><path d="M1214.253102 467.118152C1191.506776 205.352166 971.861806 0 704.183241 0 421.356747 0 192.109945 229.271235 192.109945 512.073296a509.092575 509.092575 0 0 0 40.093147 198.511167c23.015079 2.247757 581.362856 53.017751 982.05001-243.466311z m-286.100401-18.886047a63.987784 63.987784 0 1 1-63.987784 63.963352 63.963352 63.963352 0 0 1 64.012216-63.963352z m-176.106891-320.06108a80.064134 80.064134 0 1 1-80.064134 80.064134 80.112999 80.112999 0 0 1 80.088566-80.13743zM480.067188 384.268754a127.951136 127.951136 0 1 1-127.926703 127.926703 128.024432 128.024432 0 0 1 127.926703-127.926703zM335.941974 866.950181a509.556786 509.556786 0 0 0 368.241267 157.000955c229.10021 0 422.676083-150.575301 488.032067-358.175225-93.208628 61.349112-402.910479 236.332124-856.273334 201.17427z" fill="#4284FF" p-id="1468"></path><path d="M1403.040275 301.468219c-23.210536-82.482917-120.377171-137.626265-258.980722-160.836801a573.788891 573.788891 0 0 1 55.85188 78.500477c77.230006 22.208818 129.490361 56.707005 141.706433 99.585417 6.987593 24.920786 1.001718 54.14163-17.811033 86.636381-20.376408 35.182287-56.853598 74.640199-107.843481 114.269136v-0.415347c-16.63829 13.168925-367.312846 284.414583-964.263409 232.105364v0.146593l-1.24604-0.244322c-100.587135-20.718458-169.436915-59.638862-183.63199-109.944646-6.963161-24.945219-0.977286-53.995037 17.811032-86.636381 10.2615-17.66444 25.946936-36.648215 44.173316-56.19393a580.04352 580.04352 0 0 1 10.2615-97.581981c-103.592289 84.779538-156.365719 176.66883-133.790418 257.588089 24.994083 88.981867 135.940447 146.299676 292.257301 165.772094 11.874022 1.246039 514.027868 52.284787 909.975186-219.620538 143.95419-96.091621 222.454667-207.380034 195.530445-303.129605z" fill="#4284FF" p-id="1469"></path></svg>