<?xml version="1.0" standalone="no"?><!DOCTYPE svg PUBLIC "-//W3C//DTD SVG 1.1//EN" "http://www.w3.org/Graphics/SVG/1.1/DTD/svg11.dtd"><svg t="1731740186586" class="icon" viewBox="0 0 1024 1024" version="1.1" xmlns="http://www.w3.org/2000/svg" p-id="12510" xmlns:xlink="http://www.w3.org/1999/xlink" width="200" height="200"><path d="M512 64a448 448 0 1 1 0 896 448 448 0 0 1 0-896z m246.272 269.312a18.432 18.432 0 0 0-21.504 14.7456l-64.8192 344.832-138.496-54.016-0.6144-0.256a18.432 18.432 0 0 0-17.2032 2.7136l-114.3296 86.0672a18.432 18.432 0 0 0-3.1744 25.4976l0.3072 0.512a18.432 18.432 0 0 0 25.4976 3.1232l105.6768-79.5648 140.4416 54.8352 0.9216 0.3584a26.624 26.624 0 0 0 34.9184-20.2752l67.072-357.0176 0.1536-0.512a18.432 18.432 0 0 0-14.848-21.0432z m-62.72-49.8688L258.9184 467.9168a13.4144 13.4144 0 0 0 0 24.832l121.088 49.6128v122.624a13.824 13.824 0 0 0 7.2704 11.9296 14.2848 14.2848 0 0 0 14.2336-1.3312L512 596.224l116.0704 47.616a13.0048 13.0048 0 0 0 11.5712-0.6656 14.1312 14.1312 0 0 0 6.9632-9.216l67.1232-335.36a14.2336 14.2336 0 0 0-4.608-13.1584 13.568 13.568 0 0 0-13.568-2.048z m-78.3872 106.1376c6.656 6.6048 5.2736 18.5344 0 23.808l-144.896 144.7936c-5.2736 5.3248-17.2032 6.656-23.808 0-6.6048-6.6048-5.2736-18.4832 0-23.7568l144.896-144.896c5.2736-5.2224 17.2032-6.5536 23.808 0z" fill="#ffffff" p-id="12511"></path></svg>