<?xml version="1.0" standalone="no"?><!DOCTYPE svg PUBLIC "-//W3C//DTD SVG 1.1//EN" "http://www.w3.org/Graphics/SVG/1.1/DTD/svg11.dtd"><svg t="1731854163855" class="icon" viewBox="0 0 1024 1024" version="1.1" xmlns="http://www.w3.org/2000/svg" p-id="6262" xmlns:xlink="http://www.w3.org/1999/xlink" width="200" height="200"><path d="M651.5 489c-7.2-4.9-26.5-12.1-26.5-12.1 2.4 0 19.3-14.6 26.5-21.8 33.8-36.4 53.1-82.5 53.1-131.1 0-51-19.3-97.1-53.1-131.1-33.8-36.4-79.6-55.8-127.9-55.8-48.3 0-94.1 19.4-130.3 55.8-33.8 34-53.1 80.1-53.1 131.1s19.3 97.1 53.1 131.1c7.2 7.3 19.3 17 26.6 21.8-7.2 2.4-19.3 7.3-26.6 12.1-141.8 50.6-183.8 182.6-195.9 281.6-7.3 59.6 39.2 112 98.9 112h454.6c59.7 0 106.7-52.5 98.9-112-12.4-94.7-55.3-220.5-198.3-281.6zM549.4 809.3c-14.5 13.7-37.1 13.7-51.6 0-8.1-7.7-12.5-18.6-11.9-29.7L497 576.3c0-14.6 12.1-26.7 26.5-26.7 14.5 0 26.6 12.1 26.6 26.7l11.1 203.2c0.6 11.3-3.7 22.2-11.8 29.8zM352 465.2c-32-39.4-49.3-88.8-49.3-141.3 0-16 1.7-31.6 4.8-46.8-11.5-3.9-23.6-6-36-6-30.9 0-60.3 12.4-83.4 35.7-21.6 21.8-34 51.3-34 83.9 0 32.6 12.4 62.2 34 83.9 4.6 4.7 12.4 10.9 17 14-4.6 1.6-12.4 4.7-17 7.8C99.4 528 71.7 609.4 63.3 672.2c-5.4 40.3 26 76.1 66.5 76.1h32.9c20.8-138 85.3-234.8 189.3-283.1z m609.5 207c-8.7-60-37-137.6-126.3-175.8-4.6-3.1-17-7.8-17-7.8 1.5 0 12.4-9.3 17-14 21.6-23.3 34-52.8 34-83.9 0-32.6-12.4-62.2-34-83.9-21.6-23.3-51-35.7-81.9-35.7-5.8 0-11.5 0.6-17.2 1.5 3.8 16.6 5.9 33.7 5.9 51.3 0 51.1-17.9 100.9-50.7 142.3C797.1 520.5 862.8 617 884.2 748.4H895c40.6 0 72.4-35.9 66.5-76.2z" fill="#ffffff" p-id="6263"></path></svg>