<?xml version="1.0" standalone="no"?><!DOCTYPE svg PUBLIC "-//W3C//DTD SVG 1.1//EN" "http://www.w3.org/Graphics/SVG/1.1/DTD/svg11.dtd"><svg t="1731740440070" class="icon" viewBox="0 0 1024 1024" version="1.1" xmlns="http://www.w3.org/2000/svg" p-id="21473" xmlns:xlink="http://www.w3.org/1999/xlink" width="200" height="200"><path d="M506.2656 299.8272c-31.9488 0-57.9584 26.0096-57.9584 58.0608 0 18.944 9.3184 36.7616 24.8832 47.5136 4.5056 3.2768 9.3184 5.632 14.4384 7.2704l0.4096 0.1024 0.4096 0.2048c5.632 1.9456 11.6736 2.8672 17.8176 2.8672 6.2464 0 12.1856-0.9216 18.1248-2.9696l0.3072-0.1024 0.3072-0.1024c4.9152-1.536 9.728-3.9936 14.2336-7.168a57.68192 57.68192 0 0 0 25.088-47.616c0-32.0512-26.0096-58.0608-58.0608-58.0608z m0 0c-31.9488 0-57.9584 26.0096-57.9584 58.0608 0 18.944 9.3184 36.7616 24.8832 47.5136 4.5056 3.2768 9.3184 5.632 14.4384 7.2704l0.4096 0.1024 0.4096 0.2048c5.632 1.9456 11.6736 2.8672 17.8176 2.8672 6.2464 0 12.1856-0.9216 18.1248-2.9696l0.3072-0.1024 0.3072-0.1024c4.9152-1.536 9.728-3.9936 14.2336-7.168a57.68192 57.68192 0 0 0 25.088-47.616c0-32.0512-26.0096-58.0608-58.0608-58.0608zM512 128c-212.0704 0-384 171.9296-384 384S299.9296 896 512 896 896 724.0704 896 512 724.0704 128 512 128z m164.9664 616.6528c-50.176 0-91.0336-40.7552-91.0336-90.9312 0-29.2864 13.9264-55.5008 35.6352-72.0896l-92.0576-53.1456 35.2256-20.3776-20.7872-36.9664c-11.8784 3.9936-24.4736 6.144-37.6832 6.144-13.1072 0-25.8048-2.1504-37.5808-6.144l-20.7872 36.9664 35.2256 20.3776-85.7088 49.4592c24.4736 16.384 40.6528 44.2368 40.6528 75.776 0 50.176-40.8576 90.9312-91.0336 90.9312S256 703.8976 256 653.7216s40.8576-91.0336 91.0336-91.0336c12.0832 0 23.7568 2.3552 34.304 6.7584v-99.7376l36.864 21.2992 19.8656-35.1232c-30.9248-21.504-51.2-57.4464-51.2-97.9968 0-66.048 53.4528-119.5008 119.3984-119.5008 66.048 0 119.5008 53.4528 119.5008 119.5008a118.784 118.784 0 0 1-51.2 97.8944l19.8656 35.2256 36.864-21.2992v105.3696a89.71264 89.71264 0 0 1 45.6704-12.3904c50.176 0 91.0336 40.8576 91.0336 91.0336s-40.8576 90.9312-91.0336 90.9312zM506.2656 299.8272c-31.9488 0-57.9584 26.0096-57.9584 58.0608 0 18.944 9.3184 36.7616 24.8832 47.5136 4.5056 3.2768 9.3184 5.632 14.4384 7.2704l0.4096 0.1024 0.4096 0.2048c5.632 1.9456 11.6736 2.8672 17.8176 2.8672 6.2464 0 12.1856-0.9216 18.1248-2.9696l0.3072-0.1024 0.3072-0.1024c4.9152-1.536 9.728-3.9936 14.2336-7.168a57.68192 57.68192 0 0 0 25.088-47.616c0-32.0512-26.0096-58.0608-58.0608-58.0608z m0 0c-31.9488 0-57.9584 26.0096-57.9584 58.0608 0 18.944 9.3184 36.7616 24.8832 47.5136 4.5056 3.2768 9.3184 5.632 14.4384 7.2704l0.4096 0.1024 0.4096 0.2048c5.632 1.9456 11.6736 2.8672 17.8176 2.8672 6.2464 0 12.1856-0.9216 18.1248-2.9696l0.3072-0.1024 0.3072-0.1024c4.9152-1.536 9.728-3.9936 14.2336-7.168a57.68192 57.68192 0 0 0 25.088-47.616c0-32.0512-26.0096-58.0608-58.0608-58.0608z m0 0c-31.9488 0-57.9584 26.0096-57.9584 58.0608 0 18.944 9.3184 36.7616 24.8832 47.5136 4.5056 3.2768 9.3184 5.632 14.4384 7.2704l0.4096 0.1024 0.4096 0.2048c5.632 1.9456 11.6736 2.8672 17.8176 2.8672 6.2464 0 12.1856-0.9216 18.1248-2.9696l0.3072-0.1024 0.3072-0.1024c4.9152-1.536 9.728-3.9936 14.2336-7.168a57.68192 57.68192 0 0 0 25.088-47.616c0-32.0512-26.0096-58.0608-58.0608-58.0608z" fill="#4284ff" p-id="21474"></path></svg>